<svg width="347" height="508" xmlns="http://www.w3.org/2000/svg" xmlns:xlink="http://www.w3.org/1999/xlink"><defs><path d="M1.029 27.76l59.377 186.85c2.718 8.557 10.37 14.387 19.056 14.523l177.398 2.76-137.608 114.936c-6.16 5.146-8.894 13.522-7.013 21.485l38.555 164.564C153.071 542.53 161.405 549 170.582 549a19.7 19.7 0 004.859-.61c10.94-2.775 17.636-14.216 14.96-25.553l-35.477-151.512 171.477-143.226c6.69-5.59 9.283-14.924 6.488-23.344-2.798-8.418-10.38-14.124-18.972-14.255l-219.328-3.413L39.757 14.53C36.932 5.64 28.965 0 20.4 0c-2.114 0-4.268.343-6.386 1.069C3.319 4.723-2.494 16.672 1.029 27.76z" id="a"/></defs><g transform="translate(7 -20)" fill="none" fill-rule="evenodd"><mask id="b" fill="#fff"><use xlink:href="#a"/></mask><path d="M1.029 27.73l59.377 186.638c2.718 8.547 10.37 14.37 19.056 14.506l177.398 2.757-137.608 114.806c-6.16 5.14-8.894 13.507-7.013 21.46l37.492 159.999c2.276 9.643 10.61 16.104 19.787 16.104 1.604 0 3.233-.197 4.86-.61 10.939-2.77 17.635-14.199 14.96-25.524l-34.414-146.96 171.477-143.064c6.69-5.584 9.283-14.908 6.488-23.319-2.798-8.408-10.38-14.107-18.972-14.239l-219.328-3.408L39.757 14.513C36.932 5.633 28.965 0 20.4 0c-2.114 0-4.268.343-6.386 1.067C3.319 4.718-2.494 16.653 1.029 27.73z" fill="#00653E" opacity=".24" mask="url(#b)"/></g></svg>